G04 #@! TF.FileFunction,Soldermask,Top*
%FSLAX46Y46*%
G04 Gerber Fmt 4.6, Leading zero omitted, Abs format (unit mm)*
G04 Created by KiCad (PCBNEW 4.0.7) date 04/14/18 18:56:33*
%MOMM*%
%LPD*%
G01*
G04 APERTURE LIST*
%ADD10C,0.100000*%
%ADD11R,1.600000X1.150000*%
%ADD12R,1.900000X1.700000*%
%ADD13R,1.700000X1.900000*%
%ADD14R,2.300000X1.900000*%
%ADD15C,1.850000*%
%ADD16R,1.750000X0.800000*%
%ADD17O,2.300000X1.600000*%
%ADD18R,2.300000X1.600000*%
%ADD19R,2.100000X2.100000*%
%ADD20O,2.100000X2.100000*%
%ADD21R,1.600000X1.300000*%
%ADD22R,1.300000X1.600000*%
%ADD23R,2.400000X1.050000*%
%ADD24R,1.850000X0.850000*%
G04 APERTURE END LIST*
D10*
D11*
X117160000Y-66040000D03*
X119060000Y-66040000D03*
D12*
X94535000Y-65405000D03*
X97235000Y-65405000D03*
X118825000Y-54610000D03*
X116125000Y-54610000D03*
D13*
X125349000Y-63420000D03*
X125349000Y-66120000D03*
D14*
X126715000Y-56785000D03*
D15*
X124015000Y-60285000D03*
D16*
X124015000Y-58435000D03*
X124015000Y-59085000D03*
X124015000Y-56485000D03*
X124015000Y-57135000D03*
X124015000Y-57785000D03*
D15*
X124015000Y-55285000D03*
D14*
X126715000Y-58785000D03*
D17*
X126715000Y-61285000D03*
X126715000Y-54285000D03*
D18*
X126715000Y-54885000D03*
X126715000Y-60685000D03*
D19*
X100965000Y-53975000D03*
D20*
X103505000Y-53975000D03*
D21*
X102700000Y-63500000D03*
X100500000Y-63500000D03*
X107485000Y-54610000D03*
X109685000Y-54610000D03*
D22*
X101600000Y-59329500D03*
X101600000Y-57129500D03*
X100266500Y-59329500D03*
X100266500Y-57129500D03*
X123444000Y-63924000D03*
X123444000Y-66124000D03*
D21*
X119210000Y-57150000D03*
X117010000Y-57150000D03*
X119210000Y-59055000D03*
X117010000Y-59055000D03*
D23*
X119820000Y-63815000D03*
X119820000Y-62865000D03*
X119820000Y-61915000D03*
X116400000Y-61915000D03*
X116400000Y-62865000D03*
X116400000Y-63815000D03*
D24*
X105635000Y-56130000D03*
X105635000Y-56780000D03*
X105635000Y-57430000D03*
X105635000Y-58080000D03*
X105635000Y-58730000D03*
X105635000Y-59380000D03*
X105635000Y-60030000D03*
X105635000Y-60680000D03*
X105635000Y-61330000D03*
X105635000Y-61980000D03*
X111535000Y-61980000D03*
X111535000Y-61330000D03*
X111535000Y-60680000D03*
X111535000Y-60030000D03*
X111535000Y-59380000D03*
X111535000Y-58730000D03*
X111535000Y-58080000D03*
X111535000Y-57430000D03*
X111535000Y-56780000D03*
X111535000Y-56130000D03*
D19*
X97790000Y-62230000D03*
D20*
X95250000Y-62230000D03*
X97790000Y-59690000D03*
X95250000Y-59690000D03*
X97790000Y-57150000D03*
X95250000Y-57150000D03*
X97790000Y-54610000D03*
X95250000Y-54610000D03*
D19*
X112395000Y-66040000D03*
D20*
X109855000Y-66040000D03*
X107315000Y-66040000D03*
X104775000Y-66040000D03*
X102235000Y-66040000D03*
X99695000Y-66040000D03*
M02*
