M48
;DRILL file {KiCad 4.0.7} date 04/14/18 18:56:38
;FORMAT={-:-/ absolute / metric / decimal}
FMAT,2
METRIC,TZ
T1C0.400
T2C0.600
T3C0.850
T4C1.000
%
G90
G05
M71
T1
X94.361Y-58.42
X94.678Y-66.929
X94.742Y-55.88
X95.885Y-63.563
X96.52Y-53.404
X96.52Y-56.578
X99.504Y-63.944
X99.631Y-62.039
X99.695Y-55.499
X100.52Y-62.484
X100.774Y-60.642
X101.219Y-56.451
X101.79Y-60.452
X102.552Y-57.848
X102.616Y-59.817
X102.743Y-58.801
X104.14Y-63.881
X104.203Y-63.055
X105.029Y-53.467
X105.727Y-55.181
X106.997Y-56.896
X107.378Y-60.96
X107.442Y-62.42
X107.886Y-58.039
X108.521Y-65.215
X109.41Y-63.944
X109.474Y-57.531
X110.045Y-58.102
X110.109Y-56.896
X110.934Y-63.373
X111.506Y-55.308
X112.459Y-53.594
X113.538Y-55.753
X113.983Y-66.992
X114.173Y-60.134
X114.173Y-63.309
X114.554Y-55.562
X114.554Y-58.229
X115.379Y-65.341
X116.268Y-53.404
X118.11Y-62.865
X120.078Y-65.977
X120.269Y-58.039
X120.459Y-55.118
X121.666Y-59.753
X122.174Y-61.023
X122.237Y-67.373
X122.301Y-54.419
X122.428Y-56.706
X124.015Y-53.594
X125.095Y-61.912
X126.682Y-58.801
X126.715Y-56.785
X126.809Y-63.817
X127.063Y-65.024
X127.254Y-67.12
T3
X124.015Y-55.285
X124.015Y-60.285
T4
X95.25Y-54.61
X95.25Y-57.15
X95.25Y-59.69
X95.25Y-62.23
X97.79Y-54.61
X97.79Y-57.15
X97.79Y-59.69
X97.79Y-62.23
X99.695Y-66.04
X100.965Y-53.975
X102.235Y-66.04
X103.505Y-53.975
X104.775Y-66.04
X107.315Y-66.04
X109.855Y-66.04
X112.395Y-66.04
T2
X126.365Y-54.285G85X127.065Y-54.285
G05
X127.065Y-61.285G85X126.365Y-61.285
G05
T0
M30
