G04 #@! TF.FileFunction,Copper,L2,Bot,Signal*
%FSLAX46Y46*%
G04 Gerber Fmt 4.6, Leading zero omitted, Abs format (unit mm)*
G04 Created by KiCad (PCBNEW 4.0.7) date 04/14/18 18:56:33*
%MOMM*%
%LPD*%
G01*
G04 APERTURE LIST*
%ADD10C,0.100000*%
%ADD11R,0.750000X1.200000*%
%ADD12R,1.200000X0.750000*%
%ADD13C,1.450000*%
%ADD14O,1.900000X1.200000*%
%ADD15R,1.700000X1.700000*%
%ADD16O,1.700000X1.700000*%
%ADD17R,1.200000X0.900000*%
%ADD18R,0.900000X1.200000*%
%ADD19R,1.560000X0.650000*%
%ADD20R,0.800000X1.900000*%
%ADD21C,0.600000*%
%ADD22C,0.250000*%
%ADD23C,0.400000*%
%ADD24C,0.300000*%
%ADD25C,0.254000*%
G04 APERTURE END LIST*
D10*
D11*
X120332500Y-56385500D03*
X120332500Y-54485500D03*
X113538000Y-54549000D03*
X113538000Y-56449000D03*
D12*
X103825000Y-59499500D03*
X105725000Y-59499500D03*
X103825000Y-58166000D03*
X105725000Y-58166000D03*
X103825000Y-56769000D03*
X105725000Y-56769000D03*
D11*
X109855000Y-59375000D03*
X109855000Y-61275000D03*
X111125000Y-59375000D03*
X111125000Y-61275000D03*
D13*
X124015000Y-60285000D03*
X124015000Y-55285000D03*
D14*
X126715000Y-61285000D03*
X126715000Y-54285000D03*
D15*
X100965000Y-53975000D03*
D16*
X103505000Y-53975000D03*
D17*
X106065500Y-61087000D03*
X103865500Y-61087000D03*
X107485000Y-55880000D03*
X109685000Y-55880000D03*
X107485000Y-54610000D03*
X109685000Y-54610000D03*
D18*
X116650500Y-59753500D03*
X119950500Y-59753500D03*
D19*
X118190000Y-54549000D03*
X118190000Y-55499000D03*
X118190000Y-56449000D03*
X115490000Y-56449000D03*
X115490000Y-54549000D03*
D20*
X120335000Y-62635000D03*
X122235000Y-62635000D03*
X121285000Y-65635000D03*
D15*
X97790000Y-62230000D03*
D16*
X95250000Y-62230000D03*
X97790000Y-59690000D03*
X95250000Y-59690000D03*
X97790000Y-57150000D03*
X95250000Y-57150000D03*
X97790000Y-54610000D03*
X95250000Y-54610000D03*
D15*
X112395000Y-66040000D03*
D16*
X109855000Y-66040000D03*
X107315000Y-66040000D03*
X104775000Y-66040000D03*
X102235000Y-66040000D03*
X99695000Y-66040000D03*
D21*
X118110000Y-62865000D03*
X114554000Y-58229500D03*
X120269000Y-58039000D03*
X122428000Y-56705500D03*
X125095000Y-61912500D03*
X122301000Y-54419500D03*
X124015500Y-53594000D03*
X113982500Y-66992500D03*
X94678500Y-66929000D03*
X96520000Y-56578500D03*
X94742000Y-55880000D03*
X99695000Y-55499000D03*
X96520000Y-53403500D03*
X94361000Y-58420000D03*
X111506000Y-55308500D03*
X116268500Y-53403500D03*
X112458500Y-53594000D03*
X114554000Y-55562500D03*
X113538000Y-55753000D03*
X105029000Y-53467000D03*
X106997500Y-56896000D03*
X110934500Y-63373000D03*
X108521500Y-65214500D03*
X109410500Y-63944500D03*
X114173000Y-63309500D03*
X115379500Y-65341500D03*
X114173000Y-60134500D03*
X122174000Y-61023500D03*
X120078500Y-65976500D03*
X122237500Y-67373500D03*
X127254000Y-67119500D03*
X127063500Y-65024000D03*
X126715000Y-56785000D03*
X126682500Y-58801000D03*
X120459500Y-55118000D03*
X101790500Y-60452000D03*
X110045500Y-58102500D03*
X102743000Y-58801000D03*
X107886500Y-58039000D03*
X102552500Y-57848500D03*
X99504500Y-63944500D03*
X95885000Y-63563500D03*
X126809500Y-63817500D03*
X104140000Y-63881000D03*
X104203500Y-63055500D03*
X99631500Y-62039500D03*
X100520500Y-62484000D03*
X100774500Y-60642500D03*
X107442000Y-62420500D03*
X121666000Y-59753500D03*
X109474000Y-57531000D03*
X110109000Y-56896000D03*
X101219000Y-56451500D03*
X102616000Y-59817000D03*
X107378500Y-60960000D03*
X105727500Y-55181500D03*
D22*
X117411500Y-61341000D02*
X117729000Y-61341000D01*
X118110000Y-61722000D02*
X118110000Y-62865000D01*
X117729000Y-61341000D02*
X118110000Y-61722000D01*
D23*
X116650500Y-59753500D02*
X116650500Y-60580000D01*
X119041000Y-61341000D02*
X120335000Y-62635000D01*
X117411500Y-61341000D02*
X119041000Y-61341000D01*
X116650500Y-60580000D02*
X117411500Y-61341000D01*
X118190000Y-54549000D02*
X118806000Y-54549000D01*
X118806000Y-54549000D02*
X119253000Y-54102000D01*
X119253000Y-54102000D02*
X119253000Y-53784500D01*
X119253000Y-53784500D02*
X119761000Y-53276500D01*
X119761000Y-53276500D02*
X120904000Y-53276500D01*
X120904000Y-53276500D02*
X121285000Y-53657500D01*
X121285000Y-53657500D02*
X121285000Y-55816500D01*
X121285000Y-55816500D02*
X120716000Y-56385500D01*
X120716000Y-56385500D02*
X120332500Y-56385500D01*
X118190000Y-56449000D02*
X120269000Y-56449000D01*
X120269000Y-56449000D02*
X120332500Y-56385500D01*
X116650500Y-59753500D02*
X116650500Y-58609500D01*
X118190000Y-57070000D02*
X118190000Y-56449000D01*
X116650500Y-58609500D02*
X118190000Y-57070000D01*
D22*
X113538000Y-57213500D02*
X114554000Y-58229500D01*
X113538000Y-56449000D02*
X113538000Y-57213500D01*
X122174000Y-56705500D02*
X120840500Y-58039000D01*
X120840500Y-58039000D02*
X120269000Y-58039000D01*
X122428000Y-56705500D02*
X122174000Y-56705500D01*
X122301000Y-54419500D02*
X123190000Y-54419500D01*
X123190000Y-54419500D02*
X124015500Y-53594000D01*
X113474500Y-67373500D02*
X113601500Y-67373500D01*
X113601500Y-67373500D02*
X113982500Y-66992500D01*
X107315000Y-66040000D02*
X107315000Y-66992500D01*
X107315000Y-66992500D02*
X107696000Y-67373500D01*
X107696000Y-67373500D02*
X113474500Y-67373500D01*
X113474500Y-67373500D02*
X115697000Y-67373500D01*
X98425000Y-67056000D02*
X97726500Y-67056000D01*
X98806000Y-67437000D02*
X98425000Y-67056000D01*
X106870500Y-67437000D02*
X98806000Y-67437000D01*
X107315000Y-66992500D02*
X106870500Y-67437000D01*
X94678500Y-66929000D02*
X94805500Y-67056000D01*
X94805500Y-67056000D02*
X97726500Y-67056000D01*
X96520000Y-56578500D02*
X96520000Y-56261000D01*
X95885000Y-55943500D02*
X96520000Y-56578500D01*
X94805500Y-55943500D02*
X95885000Y-55943500D01*
X94742000Y-55880000D02*
X94805500Y-55943500D01*
X96520000Y-53403500D02*
X96520000Y-56261000D01*
X96520000Y-56261000D02*
X96520000Y-58991500D01*
X99631500Y-55435500D02*
X99695000Y-55499000D01*
X99631500Y-54229000D02*
X99631500Y-55435500D01*
X98552000Y-53149500D02*
X99631500Y-54229000D01*
X96774000Y-53149500D02*
X98552000Y-53149500D01*
X96520000Y-53403500D02*
X96774000Y-53149500D01*
X96520000Y-60198000D02*
X97790000Y-61468000D01*
X96520000Y-58991500D02*
X96520000Y-60198000D01*
X95885000Y-58356500D02*
X96520000Y-58991500D01*
X94361000Y-58420000D02*
X94424500Y-58356500D01*
X94424500Y-58356500D02*
X95885000Y-58356500D01*
X97790000Y-61468000D02*
X97790000Y-62230000D01*
D23*
X109685000Y-54610000D02*
X110807500Y-54610000D01*
X110807500Y-54610000D02*
X111506000Y-55308500D01*
D22*
X113538000Y-56449000D02*
X113538000Y-55753000D01*
X114617500Y-55499000D02*
X118190000Y-55499000D01*
X114554000Y-55562500D02*
X114617500Y-55499000D01*
X105725000Y-56769000D02*
X106870500Y-56769000D01*
X106870500Y-56769000D02*
X106997500Y-56896000D01*
X108521500Y-65214500D02*
X108521500Y-64833500D01*
X111125000Y-63182500D02*
X110934500Y-63373000D01*
X111125000Y-61275000D02*
X111125000Y-63182500D01*
X108521500Y-64833500D02*
X109410500Y-63944500D01*
X114173000Y-63309500D02*
X114173000Y-60134500D01*
X122237500Y-67373500D02*
X115697000Y-67373500D01*
X115379500Y-67056000D02*
X115379500Y-65341500D01*
X115697000Y-67373500D02*
X115379500Y-67056000D01*
X122235000Y-61084500D02*
X122235000Y-62635000D01*
X122174000Y-61023500D02*
X122235000Y-61084500D01*
X120078500Y-66675000D02*
X120078500Y-65976500D01*
X120650000Y-67246500D02*
X120078500Y-66675000D01*
X122110500Y-67246500D02*
X120650000Y-67246500D01*
X122237500Y-67373500D02*
X122110500Y-67246500D01*
X127254000Y-65214500D02*
X127254000Y-67119500D01*
X127063500Y-65024000D02*
X127254000Y-65214500D01*
X126682500Y-56817500D02*
X126682500Y-58801000D01*
X126682500Y-56817500D02*
X126715000Y-56785000D01*
X120332500Y-54485500D02*
X120332500Y-54991000D01*
X120332500Y-54991000D02*
X120459500Y-55118000D01*
D23*
X110871000Y-56388000D02*
X111699000Y-56388000D01*
X111699000Y-56388000D02*
X113538000Y-54549000D01*
X109685000Y-55880000D02*
X110363000Y-55880000D01*
X110871000Y-57277000D02*
X110045500Y-58102500D01*
X110871000Y-56388000D02*
X110871000Y-57277000D01*
X110363000Y-55880000D02*
X110871000Y-56388000D01*
X109685000Y-55880000D02*
X108902500Y-55880000D01*
X106997500Y-57912000D02*
X108077000Y-56832500D01*
X106997500Y-60261500D02*
X106172000Y-61087000D01*
X106997500Y-60261500D02*
X106997500Y-59563000D01*
X106997500Y-59563000D02*
X106997500Y-57912000D01*
X108267500Y-56832500D02*
X108077000Y-56832500D01*
X108585000Y-56515000D02*
X108267500Y-56832500D01*
X108585000Y-56197500D02*
X108585000Y-56515000D01*
X108902500Y-55880000D02*
X108585000Y-56197500D01*
X102044500Y-56515000D02*
X102044500Y-56705500D01*
X112207000Y-54549000D02*
X111188500Y-53530500D01*
X111188500Y-53530500D02*
X106045000Y-53530500D01*
X106045000Y-53530500D02*
X103949500Y-55626000D01*
X103949500Y-55626000D02*
X102933500Y-55626000D01*
X102933500Y-55626000D02*
X102044500Y-56515000D01*
X112456000Y-54549000D02*
X112207000Y-54549000D01*
X100901500Y-59563000D02*
X101790500Y-60452000D01*
X100901500Y-57848500D02*
X100901500Y-59563000D01*
X102044500Y-56705500D02*
X100901500Y-57848500D01*
X113538000Y-54549000D02*
X112456000Y-54549000D01*
D24*
X109855000Y-59375000D02*
X109855000Y-58293000D01*
X109855000Y-58293000D02*
X110045500Y-58102500D01*
D23*
X111125000Y-59375000D02*
X111953000Y-59375000D01*
X111953000Y-59375000D02*
X112395000Y-59817000D01*
X112395000Y-59817000D02*
X112395000Y-66040000D01*
X109855000Y-59375000D02*
X111125000Y-59375000D01*
X106065500Y-61087000D02*
X106172000Y-61087000D01*
X115490000Y-54549000D02*
X113538000Y-54549000D01*
D22*
X103825000Y-58166000D02*
X103378000Y-58166000D01*
X103378000Y-58166000D02*
X102743000Y-58801000D01*
D23*
X103825000Y-59499500D02*
X103825000Y-61046500D01*
X103825000Y-61046500D02*
X103865500Y-61087000D01*
X103825000Y-58166000D02*
X103825000Y-59499500D01*
D22*
X107950000Y-63119000D02*
X107950000Y-63113498D01*
X103759000Y-64579500D02*
X105410000Y-64579500D01*
X105410000Y-64579500D02*
X105854500Y-64135000D01*
X105854500Y-64135000D02*
X106934000Y-64135000D01*
X106934000Y-64135000D02*
X107950000Y-63119000D01*
X102298500Y-66040000D02*
X103759000Y-64579500D01*
X108071498Y-58223998D02*
X107886500Y-58039000D01*
X108071498Y-62992000D02*
X108071498Y-58223998D01*
X107950000Y-63113498D02*
X108071498Y-62992000D01*
X102235000Y-66040000D02*
X102298500Y-66040000D01*
X102552500Y-57848500D02*
X102616000Y-57785000D01*
X102616000Y-57785000D02*
X102616000Y-57404000D01*
X102616000Y-57404000D02*
X103251000Y-56769000D01*
X103251000Y-56769000D02*
X103825000Y-56769000D01*
X99504500Y-63944500D02*
X99377500Y-64071500D01*
X99377500Y-64071500D02*
X96393000Y-64071500D01*
X96393000Y-64071500D02*
X95885000Y-63563500D01*
X121285000Y-65635000D02*
X121285000Y-66230500D01*
X121285000Y-66230500D02*
X121729500Y-66675000D01*
X121729500Y-66675000D02*
X123952000Y-66675000D01*
X123952000Y-66675000D02*
X126809500Y-63817500D01*
X104140000Y-63881000D02*
X103759000Y-63881000D01*
X95250000Y-63881000D02*
X95250000Y-63246000D01*
X96012000Y-64643000D02*
X95250000Y-63881000D01*
X102997000Y-64643000D02*
X96012000Y-64643000D01*
X103759000Y-63881000D02*
X102997000Y-64643000D01*
X95250000Y-63373000D02*
X95250000Y-63246000D01*
X104140000Y-63881000D02*
X104076500Y-63944500D01*
X95250000Y-63246000D02*
X95250000Y-62230000D01*
X102489000Y-63055500D02*
X100774500Y-63055500D01*
X104203500Y-63055500D02*
X102489000Y-63055500D01*
X96831998Y-63494498D02*
X96520000Y-63182500D01*
X96520000Y-63182500D02*
X96520000Y-60960000D01*
X95250000Y-59690000D02*
X96520000Y-60960000D01*
X99065502Y-63494498D02*
X96831998Y-63494498D01*
X99441000Y-63119000D02*
X99065502Y-63494498D01*
X100711000Y-63119000D02*
X99441000Y-63119000D01*
X100774500Y-63055500D02*
X100711000Y-63119000D01*
X98996500Y-58356500D02*
X97790000Y-57150000D01*
X98996500Y-61404500D02*
X98996500Y-58356500D01*
X99631500Y-62039500D02*
X98996500Y-61404500D01*
X99504500Y-56324500D02*
X97790000Y-54610000D01*
X99504500Y-60960000D02*
X99504500Y-56324500D01*
X100330000Y-61785500D02*
X99504500Y-60960000D01*
X100330000Y-62293500D02*
X100330000Y-61785500D01*
X100520500Y-62484000D02*
X100330000Y-62293500D01*
X106934000Y-62420500D02*
X107442000Y-62420500D01*
X106934000Y-62420500D02*
X102362000Y-62420500D01*
X100774500Y-60642500D02*
X101219000Y-61087000D01*
X101219000Y-61087000D02*
X101219000Y-61277500D01*
X101219000Y-61277500D02*
X102362000Y-62420500D01*
D23*
X121666000Y-59753500D02*
X119950500Y-59753500D01*
D22*
X109029500Y-62484000D02*
X109029500Y-62611000D01*
X110490000Y-65405000D02*
X109855000Y-66040000D01*
X110490000Y-64071500D02*
X110490000Y-65405000D01*
X109029500Y-62611000D02*
X110490000Y-64071500D01*
X109474000Y-57531000D02*
X109474000Y-57848500D01*
X109029500Y-60579000D02*
X109029500Y-62484000D01*
X109029500Y-62484000D02*
X109029500Y-62865000D01*
X109029500Y-58293000D02*
X109029500Y-60579000D01*
X109474000Y-57848500D02*
X109029500Y-58293000D01*
X110109000Y-56896000D02*
X108966000Y-56896000D01*
X106045000Y-64770000D02*
X104775000Y-66040000D01*
X108521500Y-63500000D02*
X108521500Y-61023500D01*
X107251500Y-64770000D02*
X108521500Y-63500000D01*
X106045000Y-64770000D02*
X107251500Y-64770000D01*
X108521500Y-57340500D02*
X108521500Y-61023500D01*
X108966000Y-56896000D02*
X108521500Y-57340500D01*
X110109000Y-56896000D02*
X109982000Y-56896000D01*
X101219000Y-56451500D02*
X103505000Y-54165500D01*
X103505000Y-54165500D02*
X103505000Y-53975000D01*
X106172000Y-61912500D02*
X106807000Y-61912500D01*
X102616000Y-59817000D02*
X102679500Y-59880500D01*
X102679500Y-59880500D02*
X102679500Y-61468000D01*
X102679500Y-61468000D02*
X103124000Y-61912500D01*
X103124000Y-61912500D02*
X106172000Y-61912500D01*
X107378500Y-61341000D02*
X107378500Y-60960000D01*
X106807000Y-61912500D02*
X107378500Y-61341000D01*
X107485000Y-54610000D02*
X106299000Y-54610000D01*
X106299000Y-54610000D02*
X105727500Y-55181500D01*
X107485000Y-54610000D02*
X107485000Y-55880000D01*
D25*
G36*
X94170853Y-63280054D02*
X94490000Y-63493301D01*
X94490000Y-63881000D01*
X94547852Y-64171839D01*
X94712599Y-64418401D01*
X95474599Y-65180401D01*
X95721161Y-65345148D01*
X96012000Y-65403000D01*
X98349514Y-65403000D01*
X98323039Y-65442622D01*
X98210000Y-66010907D01*
X98210000Y-66069093D01*
X98323039Y-66637378D01*
X98644946Y-67119147D01*
X98818333Y-67235000D01*
X94055000Y-67235000D01*
X94055000Y-63106667D01*
X94170853Y-63280054D01*
X94170853Y-63280054D01*
G37*
X94170853Y-63280054D02*
X94490000Y-63493301D01*
X94490000Y-63881000D01*
X94547852Y-64171839D01*
X94712599Y-64418401D01*
X95474599Y-65180401D01*
X95721161Y-65345148D01*
X96012000Y-65403000D01*
X98349514Y-65403000D01*
X98323039Y-65442622D01*
X98210000Y-66010907D01*
X98210000Y-66069093D01*
X98323039Y-66637378D01*
X98644946Y-67119147D01*
X98818333Y-67235000D01*
X94055000Y-67235000D01*
X94055000Y-63106667D01*
X94170853Y-63280054D01*
G36*
X127560000Y-67235000D02*
X124455579Y-67235000D01*
X124489401Y-67212401D01*
X126949180Y-64752622D01*
X126994667Y-64752662D01*
X127338443Y-64610617D01*
X127560000Y-64389446D01*
X127560000Y-67235000D01*
X127560000Y-67235000D01*
G37*
X127560000Y-67235000D02*
X124455579Y-67235000D01*
X124489401Y-67212401D01*
X126949180Y-64752622D01*
X126994667Y-64752662D01*
X127338443Y-64610617D01*
X127560000Y-64389446D01*
X127560000Y-67235000D01*
G36*
X113665000Y-56322000D02*
X113685000Y-56322000D01*
X113685000Y-56576000D01*
X113665000Y-56576000D01*
X113665000Y-57525250D01*
X113823750Y-57684000D01*
X114039310Y-57684000D01*
X114272699Y-57587327D01*
X114451327Y-57408698D01*
X114466476Y-57372125D01*
X114710000Y-57421440D01*
X116270000Y-57421440D01*
X116505317Y-57377162D01*
X116721441Y-57238090D01*
X116841233Y-57062768D01*
X116909803Y-57169329D01*
X116060066Y-58019066D01*
X115879061Y-58289959D01*
X115815500Y-58609500D01*
X115815500Y-58646656D01*
X115749059Y-58689410D01*
X115604069Y-58901610D01*
X115553060Y-59153500D01*
X115553060Y-60353500D01*
X115597338Y-60588817D01*
X115736410Y-60804941D01*
X115882589Y-60904821D01*
X116023962Y-61116401D01*
X116060066Y-61170434D01*
X116821066Y-61931435D01*
X117091960Y-62112440D01*
X117350000Y-62163767D01*
X117350000Y-62302537D01*
X117317808Y-62334673D01*
X117175162Y-62678201D01*
X117174838Y-63050167D01*
X117316883Y-63393943D01*
X117579673Y-63657192D01*
X117923201Y-63799838D01*
X118295167Y-63800162D01*
X118638943Y-63658117D01*
X118902192Y-63395327D01*
X119044838Y-63051799D01*
X119045162Y-62679833D01*
X118936865Y-62417733D01*
X119287560Y-62768428D01*
X119287560Y-63585000D01*
X119331838Y-63820317D01*
X119470910Y-64036441D01*
X119683110Y-64181431D01*
X119935000Y-64232440D01*
X120425681Y-64232440D01*
X120288569Y-64433110D01*
X120237560Y-64685000D01*
X120237560Y-66585000D01*
X120281838Y-66820317D01*
X120420910Y-67036441D01*
X120633110Y-67181431D01*
X120885000Y-67232440D01*
X121222090Y-67232440D01*
X121225921Y-67235000D01*
X113777812Y-67235000D01*
X113841431Y-67141890D01*
X113892440Y-66890000D01*
X113892440Y-65190000D01*
X113848162Y-64954683D01*
X113709090Y-64738559D01*
X113496890Y-64593569D01*
X113245000Y-64542560D01*
X113230000Y-64542560D01*
X113230000Y-59817000D01*
X113166439Y-59497459D01*
X112985434Y-59226566D01*
X112543434Y-58784566D01*
X112541596Y-58783338D01*
X112272541Y-58603561D01*
X112109063Y-58571043D01*
X112103162Y-58539683D01*
X111964090Y-58323559D01*
X111751890Y-58178569D01*
X111500000Y-58127560D01*
X111201308Y-58127560D01*
X111461434Y-57867434D01*
X111505093Y-57802093D01*
X111642439Y-57596541D01*
X111706000Y-57277000D01*
X111706000Y-57221608D01*
X112018541Y-57159439D01*
X112289434Y-56978434D01*
X112528000Y-56739868D01*
X112528000Y-57175309D01*
X112624673Y-57408698D01*
X112803301Y-57587327D01*
X113036690Y-57684000D01*
X113252250Y-57684000D01*
X113411000Y-57525250D01*
X113411000Y-56576000D01*
X113391000Y-56576000D01*
X113391000Y-56322000D01*
X113411000Y-56322000D01*
X113411000Y-56302000D01*
X113665000Y-56302000D01*
X113665000Y-56322000D01*
X113665000Y-56322000D01*
G37*
X113665000Y-56322000D02*
X113685000Y-56322000D01*
X113685000Y-56576000D01*
X113665000Y-56576000D01*
X113665000Y-57525250D01*
X113823750Y-57684000D01*
X114039310Y-57684000D01*
X114272699Y-57587327D01*
X114451327Y-57408698D01*
X114466476Y-57372125D01*
X114710000Y-57421440D01*
X116270000Y-57421440D01*
X116505317Y-57377162D01*
X116721441Y-57238090D01*
X116841233Y-57062768D01*
X116909803Y-57169329D01*
X116060066Y-58019066D01*
X115879061Y-58289959D01*
X115815500Y-58609500D01*
X115815500Y-58646656D01*
X115749059Y-58689410D01*
X115604069Y-58901610D01*
X115553060Y-59153500D01*
X115553060Y-60353500D01*
X115597338Y-60588817D01*
X115736410Y-60804941D01*
X115882589Y-60904821D01*
X116023962Y-61116401D01*
X116060066Y-61170434D01*
X116821066Y-61931435D01*
X117091960Y-62112440D01*
X117350000Y-62163767D01*
X117350000Y-62302537D01*
X117317808Y-62334673D01*
X117175162Y-62678201D01*
X117174838Y-63050167D01*
X117316883Y-63393943D01*
X117579673Y-63657192D01*
X117923201Y-63799838D01*
X118295167Y-63800162D01*
X118638943Y-63658117D01*
X118902192Y-63395327D01*
X119044838Y-63051799D01*
X119045162Y-62679833D01*
X118936865Y-62417733D01*
X119287560Y-62768428D01*
X119287560Y-63585000D01*
X119331838Y-63820317D01*
X119470910Y-64036441D01*
X119683110Y-64181431D01*
X119935000Y-64232440D01*
X120425681Y-64232440D01*
X120288569Y-64433110D01*
X120237560Y-64685000D01*
X120237560Y-66585000D01*
X120281838Y-66820317D01*
X120420910Y-67036441D01*
X120633110Y-67181431D01*
X120885000Y-67232440D01*
X121222090Y-67232440D01*
X121225921Y-67235000D01*
X113777812Y-67235000D01*
X113841431Y-67141890D01*
X113892440Y-66890000D01*
X113892440Y-65190000D01*
X113848162Y-64954683D01*
X113709090Y-64738559D01*
X113496890Y-64593569D01*
X113245000Y-64542560D01*
X113230000Y-64542560D01*
X113230000Y-59817000D01*
X113166439Y-59497459D01*
X112985434Y-59226566D01*
X112543434Y-58784566D01*
X112541596Y-58783338D01*
X112272541Y-58603561D01*
X112109063Y-58571043D01*
X112103162Y-58539683D01*
X111964090Y-58323559D01*
X111751890Y-58178569D01*
X111500000Y-58127560D01*
X111201308Y-58127560D01*
X111461434Y-57867434D01*
X111505093Y-57802093D01*
X111642439Y-57596541D01*
X111706000Y-57277000D01*
X111706000Y-57221608D01*
X112018541Y-57159439D01*
X112289434Y-56978434D01*
X112528000Y-56739868D01*
X112528000Y-57175309D01*
X112624673Y-57408698D01*
X112803301Y-57587327D01*
X113036690Y-57684000D01*
X113252250Y-57684000D01*
X113411000Y-57525250D01*
X113411000Y-56576000D01*
X113391000Y-56576000D01*
X113391000Y-56322000D01*
X113411000Y-56322000D01*
X113411000Y-56302000D01*
X113665000Y-56302000D01*
X113665000Y-56322000D01*
G36*
X107442000Y-65913000D02*
X107462000Y-65913000D01*
X107462000Y-66167000D01*
X107442000Y-66167000D01*
X107442000Y-66187000D01*
X107188000Y-66187000D01*
X107188000Y-66167000D01*
X107168000Y-66167000D01*
X107168000Y-65913000D01*
X107188000Y-65913000D01*
X107188000Y-65893000D01*
X107442000Y-65893000D01*
X107442000Y-65913000D01*
X107442000Y-65913000D01*
G37*
X107442000Y-65913000D02*
X107462000Y-65913000D01*
X107462000Y-66167000D01*
X107442000Y-66167000D01*
X107442000Y-66187000D01*
X107188000Y-66187000D01*
X107188000Y-66167000D01*
X107168000Y-66167000D01*
X107168000Y-65913000D01*
X107188000Y-65913000D01*
X107188000Y-65893000D01*
X107442000Y-65893000D01*
X107442000Y-65913000D01*
G36*
X125401920Y-53501526D02*
X125175408Y-53929719D01*
X125171538Y-53967391D01*
X125296269Y-54158000D01*
X126588000Y-54158000D01*
X126588000Y-54138000D01*
X126842000Y-54138000D01*
X126842000Y-54158000D01*
X126862000Y-54158000D01*
X126862000Y-54412000D01*
X126842000Y-54412000D01*
X126842000Y-55520000D01*
X127192000Y-55520000D01*
X127560000Y-55406638D01*
X127560000Y-60163362D01*
X127192000Y-60050000D01*
X126842000Y-60050000D01*
X126842000Y-61158000D01*
X126862000Y-61158000D01*
X126862000Y-61412000D01*
X126842000Y-61412000D01*
X126842000Y-62520000D01*
X127192000Y-62520000D01*
X127560000Y-62406638D01*
X127560000Y-63245866D01*
X127339827Y-63025308D01*
X126996299Y-62882662D01*
X126624333Y-62882338D01*
X126280557Y-63024383D01*
X126017308Y-63287173D01*
X125874662Y-63630701D01*
X125874621Y-63677577D01*
X123637198Y-65915000D01*
X122332440Y-65915000D01*
X122332440Y-64685000D01*
X122288162Y-64449683D01*
X122149090Y-64233559D01*
X122022314Y-64146936D01*
X122108000Y-64061250D01*
X122108000Y-62762000D01*
X122362000Y-62762000D01*
X122362000Y-64061250D01*
X122520750Y-64220000D01*
X122761310Y-64220000D01*
X122994699Y-64123327D01*
X123173327Y-63944698D01*
X123270000Y-63711309D01*
X123270000Y-62920750D01*
X123111250Y-62762000D01*
X122362000Y-62762000D01*
X122108000Y-62762000D01*
X122088000Y-62762000D01*
X122088000Y-62508000D01*
X122108000Y-62508000D01*
X122108000Y-61208750D01*
X122362000Y-61208750D01*
X122362000Y-62508000D01*
X123111250Y-62508000D01*
X123270000Y-62349250D01*
X123270000Y-61558691D01*
X123173327Y-61325302D01*
X123163817Y-61315791D01*
X123241208Y-61238400D01*
X123306122Y-61476753D01*
X123816146Y-61657312D01*
X124356444Y-61628949D01*
X124420034Y-61602609D01*
X125171538Y-61602609D01*
X125175408Y-61640281D01*
X125401920Y-62068474D01*
X125775053Y-62377390D01*
X126238000Y-62520000D01*
X126588000Y-62520000D01*
X126588000Y-61412000D01*
X125296269Y-61412000D01*
X125171538Y-61602609D01*
X124420034Y-61602609D01*
X124723878Y-61476753D01*
X124788793Y-61238398D01*
X124015000Y-60464605D01*
X124000858Y-60478748D01*
X123821253Y-60299143D01*
X123835395Y-60285000D01*
X124194605Y-60285000D01*
X124968398Y-61058793D01*
X125191576Y-60998012D01*
X125296269Y-61158000D01*
X126588000Y-61158000D01*
X126588000Y-60050000D01*
X126238000Y-60050000D01*
X125775053Y-60192610D01*
X125401920Y-60501526D01*
X125338842Y-60620768D01*
X125387312Y-60483854D01*
X125358949Y-59943556D01*
X125206753Y-59576122D01*
X124968398Y-59511207D01*
X124194605Y-60285000D01*
X123835395Y-60285000D01*
X123061602Y-59511207D01*
X122823247Y-59576122D01*
X122642688Y-60086146D01*
X122671051Y-60626444D01*
X122823247Y-60993878D01*
X123061600Y-61058792D01*
X122979864Y-61140528D01*
X122761310Y-61050000D01*
X122520750Y-61050000D01*
X122362000Y-61208750D01*
X122108000Y-61208750D01*
X121949250Y-61050000D01*
X121708690Y-61050000D01*
X121475301Y-61146673D01*
X121296673Y-61325302D01*
X121281577Y-61361747D01*
X121199090Y-61233559D01*
X120986890Y-61088569D01*
X120735000Y-61037560D01*
X119935000Y-61037560D01*
X119921052Y-61040184D01*
X119881808Y-61000940D01*
X120400500Y-61000940D01*
X120635817Y-60956662D01*
X120851941Y-60817590D01*
X120996931Y-60605390D01*
X121000351Y-60588500D01*
X121238766Y-60588500D01*
X121479201Y-60688338D01*
X121851167Y-60688662D01*
X122194943Y-60546617D01*
X122458192Y-60283827D01*
X122600838Y-59940299D01*
X122601162Y-59568333D01*
X122503347Y-59331602D01*
X123241207Y-59331602D01*
X124015000Y-60105395D01*
X124788793Y-59331602D01*
X124723878Y-59093247D01*
X124213854Y-58912688D01*
X123673556Y-58941051D01*
X123306122Y-59093247D01*
X123241207Y-59331602D01*
X122503347Y-59331602D01*
X122459117Y-59224557D01*
X122196327Y-58961308D01*
X121852799Y-58818662D01*
X121480833Y-58818338D01*
X121238422Y-58918500D01*
X121003722Y-58918500D01*
X121003662Y-58918183D01*
X120864590Y-58702059D01*
X120652390Y-58557069D01*
X120400500Y-58506060D01*
X119500500Y-58506060D01*
X119265183Y-58550338D01*
X119049059Y-58689410D01*
X118904069Y-58901610D01*
X118853060Y-59153500D01*
X118853060Y-60353500D01*
X118881755Y-60506000D01*
X117757369Y-60506000D01*
X117723846Y-60472478D01*
X117747940Y-60353500D01*
X117747940Y-59153500D01*
X117703662Y-58918183D01*
X117632803Y-58808065D01*
X118780434Y-57660434D01*
X118940125Y-57421440D01*
X118970000Y-57421440D01*
X119205317Y-57377162D01*
X119350095Y-57284000D01*
X119394995Y-57284000D01*
X119493410Y-57436941D01*
X119705610Y-57581931D01*
X119957500Y-57632940D01*
X120707500Y-57632940D01*
X120942817Y-57588662D01*
X121158941Y-57449590D01*
X121303931Y-57237390D01*
X121354940Y-56985500D01*
X121354940Y-56927428D01*
X121875435Y-56406934D01*
X121988046Y-56238398D01*
X123241207Y-56238398D01*
X123306122Y-56476753D01*
X123816146Y-56657312D01*
X124356444Y-56628949D01*
X124723878Y-56476753D01*
X124788793Y-56238398D01*
X124015000Y-55464605D01*
X123241207Y-56238398D01*
X121988046Y-56238398D01*
X122056440Y-56136040D01*
X122120000Y-55816500D01*
X122120000Y-55086146D01*
X122642688Y-55086146D01*
X122671051Y-55626444D01*
X122823247Y-55993878D01*
X123061602Y-56058793D01*
X123835395Y-55285000D01*
X124194605Y-55285000D01*
X124968398Y-56058793D01*
X125206753Y-55993878D01*
X125387312Y-55483854D01*
X125361495Y-54992055D01*
X125401920Y-55068474D01*
X125775053Y-55377390D01*
X126238000Y-55520000D01*
X126588000Y-55520000D01*
X126588000Y-54412000D01*
X125296269Y-54412000D01*
X125191576Y-54571988D01*
X124968398Y-54511207D01*
X124194605Y-55285000D01*
X123835395Y-55285000D01*
X123061602Y-54511207D01*
X122823247Y-54576122D01*
X122642688Y-55086146D01*
X122120000Y-55086146D01*
X122120000Y-54331602D01*
X123241207Y-54331602D01*
X124015000Y-55105395D01*
X124788793Y-54331602D01*
X124723878Y-54093247D01*
X124213854Y-53912688D01*
X123673556Y-53941051D01*
X123306122Y-54093247D01*
X123241207Y-54331602D01*
X122120000Y-54331602D01*
X122120000Y-53657500D01*
X122071763Y-53415000D01*
X125506433Y-53415000D01*
X125401920Y-53501526D01*
X125401920Y-53501526D01*
G37*
X125401920Y-53501526D02*
X125175408Y-53929719D01*
X125171538Y-53967391D01*
X125296269Y-54158000D01*
X126588000Y-54158000D01*
X126588000Y-54138000D01*
X126842000Y-54138000D01*
X126842000Y-54158000D01*
X126862000Y-54158000D01*
X126862000Y-54412000D01*
X126842000Y-54412000D01*
X126842000Y-55520000D01*
X127192000Y-55520000D01*
X127560000Y-55406638D01*
X127560000Y-60163362D01*
X127192000Y-60050000D01*
X126842000Y-60050000D01*
X126842000Y-61158000D01*
X126862000Y-61158000D01*
X126862000Y-61412000D01*
X126842000Y-61412000D01*
X126842000Y-62520000D01*
X127192000Y-62520000D01*
X127560000Y-62406638D01*
X127560000Y-63245866D01*
X127339827Y-63025308D01*
X126996299Y-62882662D01*
X126624333Y-62882338D01*
X126280557Y-63024383D01*
X126017308Y-63287173D01*
X125874662Y-63630701D01*
X125874621Y-63677577D01*
X123637198Y-65915000D01*
X122332440Y-65915000D01*
X122332440Y-64685000D01*
X122288162Y-64449683D01*
X122149090Y-64233559D01*
X122022314Y-64146936D01*
X122108000Y-64061250D01*
X122108000Y-62762000D01*
X122362000Y-62762000D01*
X122362000Y-64061250D01*
X122520750Y-64220000D01*
X122761310Y-64220000D01*
X122994699Y-64123327D01*
X123173327Y-63944698D01*
X123270000Y-63711309D01*
X123270000Y-62920750D01*
X123111250Y-62762000D01*
X122362000Y-62762000D01*
X122108000Y-62762000D01*
X122088000Y-62762000D01*
X122088000Y-62508000D01*
X122108000Y-62508000D01*
X122108000Y-61208750D01*
X122362000Y-61208750D01*
X122362000Y-62508000D01*
X123111250Y-62508000D01*
X123270000Y-62349250D01*
X123270000Y-61558691D01*
X123173327Y-61325302D01*
X123163817Y-61315791D01*
X123241208Y-61238400D01*
X123306122Y-61476753D01*
X123816146Y-61657312D01*
X124356444Y-61628949D01*
X124420034Y-61602609D01*
X125171538Y-61602609D01*
X125175408Y-61640281D01*
X125401920Y-62068474D01*
X125775053Y-62377390D01*
X126238000Y-62520000D01*
X126588000Y-62520000D01*
X126588000Y-61412000D01*
X125296269Y-61412000D01*
X125171538Y-61602609D01*
X124420034Y-61602609D01*
X124723878Y-61476753D01*
X124788793Y-61238398D01*
X124015000Y-60464605D01*
X124000858Y-60478748D01*
X123821253Y-60299143D01*
X123835395Y-60285000D01*
X124194605Y-60285000D01*
X124968398Y-61058793D01*
X125191576Y-60998012D01*
X125296269Y-61158000D01*
X126588000Y-61158000D01*
X126588000Y-60050000D01*
X126238000Y-60050000D01*
X125775053Y-60192610D01*
X125401920Y-60501526D01*
X125338842Y-60620768D01*
X125387312Y-60483854D01*
X125358949Y-59943556D01*
X125206753Y-59576122D01*
X124968398Y-59511207D01*
X124194605Y-60285000D01*
X123835395Y-60285000D01*
X123061602Y-59511207D01*
X122823247Y-59576122D01*
X122642688Y-60086146D01*
X122671051Y-60626444D01*
X122823247Y-60993878D01*
X123061600Y-61058792D01*
X122979864Y-61140528D01*
X122761310Y-61050000D01*
X122520750Y-61050000D01*
X122362000Y-61208750D01*
X122108000Y-61208750D01*
X121949250Y-61050000D01*
X121708690Y-61050000D01*
X121475301Y-61146673D01*
X121296673Y-61325302D01*
X121281577Y-61361747D01*
X121199090Y-61233559D01*
X120986890Y-61088569D01*
X120735000Y-61037560D01*
X119935000Y-61037560D01*
X119921052Y-61040184D01*
X119881808Y-61000940D01*
X120400500Y-61000940D01*
X120635817Y-60956662D01*
X120851941Y-60817590D01*
X120996931Y-60605390D01*
X121000351Y-60588500D01*
X121238766Y-60588500D01*
X121479201Y-60688338D01*
X121851167Y-60688662D01*
X122194943Y-60546617D01*
X122458192Y-60283827D01*
X122600838Y-59940299D01*
X122601162Y-59568333D01*
X122503347Y-59331602D01*
X123241207Y-59331602D01*
X124015000Y-60105395D01*
X124788793Y-59331602D01*
X124723878Y-59093247D01*
X124213854Y-58912688D01*
X123673556Y-58941051D01*
X123306122Y-59093247D01*
X123241207Y-59331602D01*
X122503347Y-59331602D01*
X122459117Y-59224557D01*
X122196327Y-58961308D01*
X121852799Y-58818662D01*
X121480833Y-58818338D01*
X121238422Y-58918500D01*
X121003722Y-58918500D01*
X121003662Y-58918183D01*
X120864590Y-58702059D01*
X120652390Y-58557069D01*
X120400500Y-58506060D01*
X119500500Y-58506060D01*
X119265183Y-58550338D01*
X119049059Y-58689410D01*
X118904069Y-58901610D01*
X118853060Y-59153500D01*
X118853060Y-60353500D01*
X118881755Y-60506000D01*
X117757369Y-60506000D01*
X117723846Y-60472478D01*
X117747940Y-60353500D01*
X117747940Y-59153500D01*
X117703662Y-58918183D01*
X117632803Y-58808065D01*
X118780434Y-57660434D01*
X118940125Y-57421440D01*
X118970000Y-57421440D01*
X119205317Y-57377162D01*
X119350095Y-57284000D01*
X119394995Y-57284000D01*
X119493410Y-57436941D01*
X119705610Y-57581931D01*
X119957500Y-57632940D01*
X120707500Y-57632940D01*
X120942817Y-57588662D01*
X121158941Y-57449590D01*
X121303931Y-57237390D01*
X121354940Y-56985500D01*
X121354940Y-56927428D01*
X121875435Y-56406934D01*
X121988046Y-56238398D01*
X123241207Y-56238398D01*
X123306122Y-56476753D01*
X123816146Y-56657312D01*
X124356444Y-56628949D01*
X124723878Y-56476753D01*
X124788793Y-56238398D01*
X124015000Y-55464605D01*
X123241207Y-56238398D01*
X121988046Y-56238398D01*
X122056440Y-56136040D01*
X122120000Y-55816500D01*
X122120000Y-55086146D01*
X122642688Y-55086146D01*
X122671051Y-55626444D01*
X122823247Y-55993878D01*
X123061602Y-56058793D01*
X123835395Y-55285000D01*
X124194605Y-55285000D01*
X124968398Y-56058793D01*
X125206753Y-55993878D01*
X125387312Y-55483854D01*
X125361495Y-54992055D01*
X125401920Y-55068474D01*
X125775053Y-55377390D01*
X126238000Y-55520000D01*
X126588000Y-55520000D01*
X126588000Y-54412000D01*
X125296269Y-54412000D01*
X125191576Y-54571988D01*
X124968398Y-54511207D01*
X124194605Y-55285000D01*
X123835395Y-55285000D01*
X123061602Y-54511207D01*
X122823247Y-54576122D01*
X122642688Y-55086146D01*
X122120000Y-55086146D01*
X122120000Y-54331602D01*
X123241207Y-54331602D01*
X124015000Y-55105395D01*
X124788793Y-54331602D01*
X124723878Y-54093247D01*
X124213854Y-53912688D01*
X123673556Y-53941051D01*
X123306122Y-54093247D01*
X123241207Y-54331602D01*
X122120000Y-54331602D01*
X122120000Y-53657500D01*
X122071763Y-53415000D01*
X125506433Y-53415000D01*
X125401920Y-53501526D01*
G36*
X109730000Y-64386302D02*
X109730000Y-64550771D01*
X109286715Y-64638946D01*
X108804946Y-64960853D01*
X108577298Y-65301553D01*
X108510183Y-65158642D01*
X108210642Y-64885660D01*
X109058901Y-64037401D01*
X109187956Y-63844258D01*
X109730000Y-64386302D01*
X109730000Y-64386302D01*
G37*
X109730000Y-64386302D02*
X109730000Y-64550771D01*
X109286715Y-64638946D01*
X108804946Y-64960853D01*
X108577298Y-65301553D01*
X108510183Y-65158642D01*
X108210642Y-64885660D01*
X109058901Y-64037401D01*
X109187956Y-63844258D01*
X109730000Y-64386302D01*
G36*
X109982000Y-61148000D02*
X110998000Y-61148000D01*
X110998000Y-61128000D01*
X111252000Y-61128000D01*
X111252000Y-61148000D01*
X111272000Y-61148000D01*
X111272000Y-61402000D01*
X111252000Y-61402000D01*
X111252000Y-62351250D01*
X111410750Y-62510000D01*
X111560000Y-62510000D01*
X111560000Y-64542560D01*
X111545000Y-64542560D01*
X111309683Y-64586838D01*
X111250000Y-64625243D01*
X111250000Y-64071500D01*
X111192148Y-63780661D01*
X111027401Y-63534099D01*
X109982002Y-62488700D01*
X109982002Y-62351252D01*
X110140750Y-62510000D01*
X110356310Y-62510000D01*
X110490000Y-62454624D01*
X110623690Y-62510000D01*
X110839250Y-62510000D01*
X110998000Y-62351250D01*
X110998000Y-61402000D01*
X109982000Y-61402000D01*
X109982000Y-61422000D01*
X109789500Y-61422000D01*
X109789500Y-61128000D01*
X109982000Y-61128000D01*
X109982000Y-61148000D01*
X109982000Y-61148000D01*
G37*
X109982000Y-61148000D02*
X110998000Y-61148000D01*
X110998000Y-61128000D01*
X111252000Y-61128000D01*
X111252000Y-61148000D01*
X111272000Y-61148000D01*
X111272000Y-61402000D01*
X111252000Y-61402000D01*
X111252000Y-62351250D01*
X111410750Y-62510000D01*
X111560000Y-62510000D01*
X111560000Y-64542560D01*
X111545000Y-64542560D01*
X111309683Y-64586838D01*
X111250000Y-64625243D01*
X111250000Y-64071500D01*
X111192148Y-63780661D01*
X111027401Y-63534099D01*
X109982002Y-62488700D01*
X109982002Y-62351252D01*
X110140750Y-62510000D01*
X110356310Y-62510000D01*
X110490000Y-62454624D01*
X110623690Y-62510000D01*
X110839250Y-62510000D01*
X110998000Y-62351250D01*
X110998000Y-61402000D01*
X109982000Y-61402000D01*
X109982000Y-61422000D01*
X109789500Y-61422000D01*
X109789500Y-61128000D01*
X109982000Y-61128000D01*
X109982000Y-61148000D01*
G36*
X97917000Y-62103000D02*
X97937000Y-62103000D01*
X97937000Y-62357000D01*
X97917000Y-62357000D01*
X97917000Y-62377000D01*
X97663000Y-62377000D01*
X97663000Y-62357000D01*
X97643000Y-62357000D01*
X97643000Y-62103000D01*
X97663000Y-62103000D01*
X97663000Y-62083000D01*
X97917000Y-62083000D01*
X97917000Y-62103000D01*
X97917000Y-62103000D01*
G37*
X97917000Y-62103000D02*
X97937000Y-62103000D01*
X97937000Y-62357000D01*
X97917000Y-62357000D01*
X97917000Y-62377000D01*
X97663000Y-62377000D01*
X97663000Y-62357000D01*
X97643000Y-62357000D01*
X97643000Y-62103000D01*
X97663000Y-62103000D01*
X97663000Y-62083000D01*
X97917000Y-62083000D01*
X97917000Y-62103000D01*
G36*
X105852000Y-56642000D02*
X105872000Y-56642000D01*
X105872000Y-56896000D01*
X105852000Y-56896000D01*
X105852000Y-58039000D01*
X105872000Y-58039000D01*
X105872000Y-58293000D01*
X105852000Y-58293000D01*
X105852000Y-59372500D01*
X105872000Y-59372500D01*
X105872000Y-59626500D01*
X105852000Y-59626500D01*
X105852000Y-59646500D01*
X105598000Y-59646500D01*
X105598000Y-59626500D01*
X105578000Y-59626500D01*
X105578000Y-59372500D01*
X105598000Y-59372500D01*
X105598000Y-58293000D01*
X105578000Y-58293000D01*
X105578000Y-58039000D01*
X105598000Y-58039000D01*
X105598000Y-56896000D01*
X105578000Y-56896000D01*
X105578000Y-56642000D01*
X105598000Y-56642000D01*
X105598000Y-56622000D01*
X105852000Y-56622000D01*
X105852000Y-56642000D01*
X105852000Y-56642000D01*
G37*
X105852000Y-56642000D02*
X105872000Y-56642000D01*
X105872000Y-56896000D01*
X105852000Y-56896000D01*
X105852000Y-58039000D01*
X105872000Y-58039000D01*
X105872000Y-58293000D01*
X105852000Y-58293000D01*
X105852000Y-59372500D01*
X105872000Y-59372500D01*
X105872000Y-59626500D01*
X105852000Y-59626500D01*
X105852000Y-59646500D01*
X105598000Y-59646500D01*
X105598000Y-59626500D01*
X105578000Y-59626500D01*
X105578000Y-59372500D01*
X105598000Y-59372500D01*
X105598000Y-58293000D01*
X105578000Y-58293000D01*
X105578000Y-58039000D01*
X105598000Y-58039000D01*
X105598000Y-56896000D01*
X105578000Y-56896000D01*
X105578000Y-56642000D01*
X105598000Y-56642000D01*
X105598000Y-56622000D01*
X105852000Y-56622000D01*
X105852000Y-56642000D01*
G36*
X94170853Y-58200054D02*
X94500026Y-58420000D01*
X94170853Y-58639946D01*
X94055000Y-58813333D01*
X94055000Y-58026667D01*
X94170853Y-58200054D01*
X94170853Y-58200054D01*
G37*
X94170853Y-58200054D02*
X94500026Y-58420000D01*
X94170853Y-58639946D01*
X94055000Y-58813333D01*
X94055000Y-58026667D01*
X94170853Y-58200054D01*
G36*
X96710853Y-55660054D02*
X97040026Y-55880000D01*
X96710853Y-56099946D01*
X96520000Y-56385578D01*
X96329147Y-56099946D01*
X95999974Y-55880000D01*
X96329147Y-55660054D01*
X96520000Y-55374422D01*
X96710853Y-55660054D01*
X96710853Y-55660054D01*
G37*
X96710853Y-55660054D02*
X97040026Y-55880000D01*
X96710853Y-56099946D01*
X96520000Y-56385578D01*
X96329147Y-56099946D01*
X95999974Y-55880000D01*
X96329147Y-55660054D01*
X96520000Y-55374422D01*
X96710853Y-55660054D01*
G36*
X111616566Y-55139435D02*
X111706563Y-55199569D01*
X111353132Y-55553000D01*
X111216869Y-55553000D01*
X110953434Y-55289566D01*
X110952722Y-55289090D01*
X110899196Y-55253326D01*
X110897024Y-55241779D01*
X110920000Y-55186310D01*
X110920000Y-54895750D01*
X110761250Y-54737000D01*
X109812000Y-54737000D01*
X109812000Y-54757000D01*
X109558000Y-54757000D01*
X109558000Y-54737000D01*
X109538000Y-54737000D01*
X109538000Y-54483000D01*
X109558000Y-54483000D01*
X109558000Y-54463000D01*
X109812000Y-54463000D01*
X109812000Y-54483000D01*
X110761250Y-54483000D01*
X110860691Y-54383559D01*
X111616566Y-55139435D01*
X111616566Y-55139435D01*
G37*
X111616566Y-55139435D02*
X111706563Y-55199569D01*
X111353132Y-55553000D01*
X111216869Y-55553000D01*
X110953434Y-55289566D01*
X110952722Y-55289090D01*
X110899196Y-55253326D01*
X110897024Y-55241779D01*
X110920000Y-55186310D01*
X110920000Y-54895750D01*
X110761250Y-54737000D01*
X109812000Y-54737000D01*
X109812000Y-54757000D01*
X109558000Y-54757000D01*
X109558000Y-54737000D01*
X109538000Y-54737000D01*
X109538000Y-54483000D01*
X109558000Y-54483000D01*
X109558000Y-54463000D01*
X109812000Y-54463000D01*
X109812000Y-54483000D01*
X110761250Y-54483000D01*
X110860691Y-54383559D01*
X111616566Y-55139435D01*
G36*
X120450000Y-54632500D02*
X120205500Y-54632500D01*
X120205500Y-54612500D01*
X120185500Y-54612500D01*
X120185500Y-54358500D01*
X120205500Y-54358500D01*
X120205500Y-54338500D01*
X120450000Y-54338500D01*
X120450000Y-54632500D01*
X120450000Y-54632500D01*
G37*
X120450000Y-54632500D02*
X120205500Y-54632500D01*
X120205500Y-54612500D01*
X120185500Y-54612500D01*
X120185500Y-54358500D01*
X120205500Y-54358500D01*
X120205500Y-54338500D01*
X120450000Y-54338500D01*
X120450000Y-54632500D01*
G36*
X112711559Y-53484910D02*
X112566569Y-53697110D01*
X112563149Y-53714000D01*
X112552869Y-53714000D01*
X112253868Y-53415000D01*
X112820202Y-53415000D01*
X112711559Y-53484910D01*
X112711559Y-53484910D01*
G37*
X112711559Y-53484910D02*
X112566569Y-53697110D01*
X112563149Y-53714000D01*
X112552869Y-53714000D01*
X112253868Y-53415000D01*
X112820202Y-53415000D01*
X112711559Y-53484910D01*
M02*
