G04 #@! TF.FileFunction,Soldermask,Bot*
%FSLAX46Y46*%
G04 Gerber Fmt 4.6, Leading zero omitted, Abs format (unit mm)*
G04 Created by KiCad (PCBNEW 4.0.7) date 04/14/18 18:56:33*
%MOMM*%
%LPD*%
G01*
G04 APERTURE LIST*
%ADD10C,0.100000*%
%ADD11R,1.150000X1.600000*%
%ADD12R,1.600000X1.150000*%
%ADD13C,1.850000*%
%ADD14O,2.300000X1.600000*%
%ADD15R,2.100000X2.100000*%
%ADD16O,2.100000X2.100000*%
%ADD17R,1.600000X1.300000*%
%ADD18R,1.300000X1.600000*%
%ADD19R,1.960000X1.050000*%
%ADD20R,1.200000X2.300000*%
G04 APERTURE END LIST*
D10*
D11*
X120332500Y-56385500D03*
X120332500Y-54485500D03*
X113538000Y-54549000D03*
X113538000Y-56449000D03*
D12*
X103825000Y-59499500D03*
X105725000Y-59499500D03*
X103825000Y-58166000D03*
X105725000Y-58166000D03*
X103825000Y-56769000D03*
X105725000Y-56769000D03*
D11*
X109855000Y-59375000D03*
X109855000Y-61275000D03*
X111125000Y-59375000D03*
X111125000Y-61275000D03*
D13*
X124015000Y-60285000D03*
X124015000Y-55285000D03*
D14*
X126715000Y-61285000D03*
X126715000Y-54285000D03*
D15*
X100965000Y-53975000D03*
D16*
X103505000Y-53975000D03*
D17*
X106065500Y-61087000D03*
X103865500Y-61087000D03*
X107485000Y-55880000D03*
X109685000Y-55880000D03*
X107485000Y-54610000D03*
X109685000Y-54610000D03*
D18*
X116650500Y-59753500D03*
X119950500Y-59753500D03*
D19*
X118190000Y-54549000D03*
X118190000Y-55499000D03*
X118190000Y-56449000D03*
X115490000Y-56449000D03*
X115490000Y-54549000D03*
D20*
X120335000Y-62635000D03*
X122235000Y-62635000D03*
X121285000Y-65635000D03*
D15*
X97790000Y-62230000D03*
D16*
X95250000Y-62230000D03*
X97790000Y-59690000D03*
X95250000Y-59690000D03*
X97790000Y-57150000D03*
X95250000Y-57150000D03*
X97790000Y-54610000D03*
X95250000Y-54610000D03*
D15*
X112395000Y-66040000D03*
D16*
X109855000Y-66040000D03*
X107315000Y-66040000D03*
X104775000Y-66040000D03*
X102235000Y-66040000D03*
X99695000Y-66040000D03*
M02*
